<svg width="260" height="70" viewBox="0 0 140 70" preserveAspectRatio="xMinYMid meet" xmlns="http://www.w3.org/2000/svg"><style>@media screen and (max-width:100px){#logo-type{display:none}}@media screen and (max-height:50px){#tagline{display:none}}</style><title>Foundation - Victory Over Cancer</title><path fill="#EE3B34" d="M70.9 59C32.1 62.2 9.7 66.6 0 69l.4.9c45.1-7.1 77.8-6.5 77.8-6.5-1-1.6-7.3-4.4-7.3-4.4"/><path fill="#4095B2" d="M120.9.1c-.1 0-.2.1-.4.1-24.5 7.5-59.7 21.2-81 41 0 0 2.7-5.3 4.1-10.9 0-.1 0-.1.1-.2.1-.6.2-1.1.3-1.7.8-5-.4-8.1-1.6-9.8-.1-.1-.1-.2-.2-.2 0 0-1.5-2.6-6.3-3.9-.2-.1-.4-.1-.7-.2-1.5-.3-8.9-1.5-21 2.6-4 1.3-8.2 3.1-11.1 5.5L7 23.9s11.1-9.2 26.1-8.7c2 .2 4.2.7 5.5 2.3 0 0 0 .1.1.1.1.1.1.2.2.3 1.2 1.6 2 4.3 1 8.4 0 0 0 .1-.1.2-.2.8-.5 1.6-.8 2.5-1 2.9-2.9 8.3-6.6 16.6-1.8 5.1-3.3 10.1-3 11.9l6.9 1.7s-.6-4.3 3-10.3c3.2-4.9 22.2-20.4 51.1-33.8 5.4-2.3 10.7-4.4 15.7-6.3 4.2-1.7 8.5-3.3 12.8-4.8 1.9-.6 3.8-1.2 5.8-1.8.1 0 .2-.1.3-.1-.7-.7-2.1-1.7-4.1-2"/><path fill="#fff" id="logo-type" d="M95.3 30.9l-.3-.7c-.3-.6-.8-.8-1.7-.8h-4.2v4.8h3.7c.7 0 .8-.4 1.1-1.1h.5v3.2h-.5c-.3-.7-.4-1.1-1.1-1.1h-3.7v4.5c0 .7.4.8 1.2 1v.7h-4.7v-.7c.8-.2 1.2-.4 1.2-1V30c0-.7-.4-.8-1.2-1v-.8h9.3c.4 0 .7.2.8.7l.4 2h-.8zm9.9 10.7c-3.6 0-6.3-2.9-6.3-7 0-3.9 2.7-6.7 6.3-6.7 3.6 0 6.3 2.9 6.3 6.7.1 4-2.6 7-6.3 7zm3.9-6.3c0-3.9-1.9-6.3-4.3-6.3-1.9 0-3.5 1.1-3.5 5s1.9 6.3 4.3 6.3c1.9.1 3.5-.8 3.5-5zm18.3-6.3c-.5.1-1 .2-1 .7V36c0 3.4-1.9 5.6-5 5.6-3.7 0-5.7-2.2-5.7-5.6v-6.3c0-.5-.4-.6-.9-.7v-.8h4.2v.8c-.5.1-1 .2-1 .7v5.5c0 3.7 1.3 5.2 3.4 5.2 2 0 3.7-1.1 3.7-4.5v-6.3c0-.5-.4-.6-1-.7v-.8h3.3v.9zm16.9 0c-.8.2-1.3.5-1.3 1v11.4c0 .2-.6.2-.7 0L133.6 31v8.7c0 .5.4.8 1.3 1v.7h-3.7v-.7c.8-.2 1.3-.5 1.3-1V30c0-.5-.4-.8-1.3-1v-.7h3.2l7.3 9.2V30c0-.5-.4-.8-1.3-1v-.7h3.9v.7zm15.6 5.8c0 5.4-3.8 6.7-7.5 6.6-2.2-.1-3.3-.1-4.9 0v-.9c1-.2 1.4-.5 1.4-1v-9.4c0-.5-.4-.8-1.4-1v-.8h4.7c4.9 0 7.7 1.7 7.7 6.5zm-2.4 0c0-3.5-1.5-5.6-4.6-5.6h-1.7v10.2c0 .5.2.7.7.8l1.2.1c3.2.2 4.4-1.9 4.4-5.5zm18.5 5.8v.8h-4.8v-.8c1.2-.2 1.2-.4 1-.9l-1.2-2.9h-5l-1.1 2.8c-.2.6.2.8 1.2 1v.8h-4v-.8c1-.2 1.2-.3 1.6-1.3l4.7-11.3.7.2c.3.1.6.3.7.6l4.4 9.9c.6 1.6.9 1.7 1.8 1.9zm-5.5-4.7l-2.2-5-2.1 5h4.3zm17.5-5.1h-.6l-.3-.7c-.2-.4-.5-.7-1-.7h-2.5v10.3c0 .7.5.8 1.3 1v.7h-4.7v-.7c.8-.2 1.2-.4 1.2-1V29.4h-2.5c-.5 0-.8.3-1 .7l-.3.7h-.6l.1-2c0-.3.2-.5.5-.5h9.8c.3 0 .4.2.5.5l.1 2zm8.2 9.9v.7h-4.7v-.7c.8-.2 1.3-.4 1.3-1V30c0-.7-.5-.8-1.3-1v-.8h4.7v.8c-.8.2-1.3.3-1.3 1v9.7c.1.6.5.8 1.3 1zm9.8.9c-3.6 0-6.3-2.9-6.3-7 0-3.9 2.7-6.7 6.3-6.7 3.6 0 6.3 2.9 6.3 6.7 0 4-2.7 7-6.3 7zm3.9-6.3c0-3.9-1.9-6.3-4.3-6.3-1.9 0-3.5 1.1-3.5 5s1.9 6.3 4.3 6.3c1.9.1 3.5-.8 3.5-5zm18.3-6.3c-.8.2-1.3.5-1.3 1v11.4c0 .2-.6.2-.7 0L217.5 31v8.7c0 .5.4.8 1.3 1v.7h-3.7v-.7c.8-.2 1.3-.5 1.3-1V30c0-.5-.4-.8-1.3-1v-.7h3.2l7.3 9.2V30c0-.5-.4-.8-1.3-1v-.7h3.9v.7z"/><path fill="#EE3B34" id="tagline" d="M124.1 48.7c-.5.1-.7.3-1 .8l-3.9 7.1h-.5c-.2 0-.3-.1-.4-.4l-1.9-6.5c-.3-.9-.4-1-1-1.1l.1-.8h3.3l-.1.8c-.6.1-.8.2-.8.4l1.5 5.1 2.7-5.1c.2-.3-.1-.4-.6-.5l.1-.8h2.5v1zm2.6 6.5l-.3.9c-.5.4-.9.5-1.3.5-.7 0-1-.5-.9-1.2l.5-3.8c.1-.5-.2-.6-.7-.4l.1-.5c.4-.3.9-.5 1.4-.5.7 0 .9.5.8 1.2l-.5 3.6c-.1.4.2.5.9.2zm0-6.8c-.1.5-.5.9-1 .9s-.9-.5-.8-1.1c.1-.5.5-.9 1-.9s.9.5.8 1.1zm3 8.3c-1.4 0-2.6-1-2.6-2.8 0-1.9 1.3-3.7 3.5-3.7 1.5 0 2.2.8 2.2 1.6 0 .5-.2.9-.8.9-.6 0-.8-.4-.7-.7v-.3c0-.3-.1-.6-.8-.6-1.4 0-1.8 1.4-1.8 2.8 0 1.2.5 1.9 1.3 1.9 1 0 1.4-.8 1.7-.8.2 0 .4.3.6.4-.3.5-1.2 1.3-2.6 1.3zm6.1-5.5l-.5 3.8c0 .3.1.5.4.5.3 0 .7-.1 1.1-.4l-.2.9c-.4.5-1 .7-1.6.7-.9 0-1.3-.7-1.2-1.6l.5-3.8h-.9l.1-.9c1.3 0 1.5-.5 1.9-1.5.2-.3.7-.2.6.2l-.2 1.3h1.3l-.1.9h-1.2zm7.5 1.7c0 1.7-1.2 3.8-3.4 3.8-1.4 0-2.6-1-2.6-2.8 0-1.6 1.1-3.7 3.4-3.7 1.3-.1 2.6.9 2.6 2.7zm-2.7-1.9c-1.3 0-1.6 1.6-1.6 2.8 0 1.2.5 1.9 1.1 1.9 1.4 0 1.6-1.5 1.6-2.7 0-1.3-.5-2-1.1-2zm8.2.3c-.7.8-.8.3-1.5.4-.8.1-1.3 1.2-1.5 2.1l-.4 2.9h-1.5l.7-5c.1-.5-.2-.6-.7-.4l.1-.5c.4-.3 1.1-.5 1.4-.5.6 0 .8.6.7 1.2l-.3 1.4.4-.9c.5-1.2 1.2-1.6 2-1.6.6-.2 1.1.2.6.9zm6.8.4c-1.2 2.5-4.5 7.8-6.6 7.8-.8 0-1.4-.4-1.4-1.1 0-.6.2-1 .8-1 1 0 .4 1.2 1 1.2.4 0 1.3-.9 2.2-2.1l-1.1-4.9c-.2-.6-.5-.8-1-.6l.1-.6c.3-.2.7-.4 1.2-.4.7 0 1 .5 1.2 1.4l.7 3.5c.8-1.2 1.5-2.5 1.9-3.3.2-.6-.1-.8-.5-.6l.1-.6c.3-.2.7-.3 1.2-.3.6.2.4 1.2.2 1.6zm3 1.1c0-2.1 1.4-5.1 4.7-5.1 2 0 3.6 1.5 3.6 3.7 0 2.1-1.5 5.3-4.7 5.3-2.1 0-3.6-1.4-3.6-3.9zm6.3-1.3c0-1.8-.6-2.9-1.7-2.9-2.1 0-2.7 2.4-2.7 3.9 0 1.7.7 2.9 1.8 2.9 2 .1 2.6-2.1 2.6-3.9zm8.5.2c-.7 1.6-2.1 3.9-3.5 5.1h-.6l-1.2-5c-.2-.6-.5-.8-1-.6l.1-.6c.3-.2.7-.4 1.2-.4.7 0 1 .5 1.2 1.4l.7 3.3c.8-.9 1.6-2.3 1.9-3.1.2-.6-.1-.8-.5-.6l.1-.6c.3-.2.7-.3 1.2-.3.8 0 .6 1 .4 1.4zm3.7 2.1l-1.8.3c0 .6.1 1.6 1.4 1.6.9 0 1.3-.3 1.7-.8l.4.6c-.4.5-1.2 1.1-2.4 1.1-1.5 0-2.7-1.1-2.7-2.8 0-1.6 1.1-3.7 3.4-3.7 1.4 0 2.3 1 2.3 2.2 0 1-.7 1.2-2.3 1.5zm.9-1.7c0-.6-.3-1-.9-1-1.2 0-1.7 1-1.8 2.3l2.1-.4c.5-.2.6-.5.6-.9zm6.7-.8c-.7.8-.8.3-1.5.4-.8.1-1.3 1.2-1.5 2.1l-.4 2.9h-1.5l.7-5c.1-.5-.2-.6-.7-.4l.1-.5c.4-.3 1.1-.5 1.4-.5.6 0 .8.6.7 1.2l-.3 1.4.4-.9c.5-1.2 1.2-1.6 2-1.6.7-.2 1.2.2.6.9zm9.5-1.1c-.3-1.1-1.1-1.6-2-1.6-2.1 0-2.6 2.9-2.6 4.4 0 1.7.7 2.5 1.8 2.5 1.2 0 1.9-.6 2.3-1.7h1.2c-.5 1.8-1.9 2.9-3.8 2.9-2 0-3.4-1.4-3.4-3.8 0-2 1.4-5.2 4.5-5.2 1 0 1.8.5 2 1.3.3 0 .4-.5.6-1.1h.8l-.2 2.6-.9.3-.3-.6zm8 5l-.3.9c-.5.5-1 .5-1.3.5-.5 0-.8-.2-.9-.6-.4.4-1 .6-1.6.6-1.3 0-2.6-1-2.6-2.8 0-1.8 1.3-3.7 3.4-3.7.7 0 1.1.3 1.4.7l.1-.5h1.5l-.6 4.7c-.2.4.2.5.9.2zm-2.5-.7l.3-2.5c-.2-.6-.7-.9-1.3-.9-1.3 0-1.7 1.5-1.7 2.8 0 1.2.5 1.9 1.3 1.9.9-.1 1.3-.6 1.4-1.3zm9.9.7l-.3.9c-.5.4-1 .5-1.3.5-.7 0-1.1-.4-1-1.1l.3-2.6c.1-1 .1-1.6-.6-1.6-.9 0-1.6.9-1.9 1.3l-.5 4h-1.5l.6-5c.1-.5-.2-.6-.7-.4l.1-.5c.4-.3.9-.5 1.4-.5.7 0 .8.7.7 1.3l-.1.2c.3-.4 1.1-1.5 2.4-1.5 1.1 0 2 .5 1.7 2.5l-.3 2.3c-.1.4.3.5 1 .2zm3 1.5c-1.4 0-2.6-1-2.6-2.8 0-1.9 1.3-3.7 3.5-3.7 1.5 0 2.2.8 2.2 1.6 0 .5-.2.9-.8.9-.6 0-.8-.4-.7-.7v-.3c0-.3-.1-.6-.8-.6-1.4 0-1.8 1.4-1.8 2.8 0 1.2.5 1.9 1.3 1.9 1 0 1.4-.8 1.7-.8.2 0 .4.3.6.4-.3.5-1.2 1.3-2.6 1.3zm6.9-2.9l-1.8.3c0 .6.1 1.6 1.4 1.6.9 0 1.3-.3 1.7-.8l.4.6c-.4.5-1.2 1.1-2.4 1.1-1.5 0-2.7-1.1-2.7-2.8 0-1.6 1.1-3.7 3.4-3.7 1.4 0 2.3 1 2.3 2.2 0 1-.7 1.2-2.3 1.5zm.9-1.7c0-.6-.3-1-.9-1-1.2 0-1.7 1-1.8 2.3l2.1-.4c.5-.2.6-.5.6-.9zm6.7-.8c-.7.8-.8.3-1.5.4-.8.1-1.3 1.2-1.5 2.1l-.4 2.9h-1.5l.7-5c.1-.5-.2-.6-.7-.4l.1-.5c.4-.3 1.1-.5 1.4-.5.6 0 .8.6.7 1.2l-.3 1.4.4-.9c.5-1.2 1.2-1.6 2-1.6.7-.2 1.2.2.6.9z"/></svg>
